<svg width="145" height="147" viewBox="0 0 145 147" fill="none" xmlns="http://www.w3.org/2000/svg">
<path d="M131.374 89.0761C130.695 91.6839 131.793 94.4372 133.969 95.6208L134.623 94.2579C133.032 93.3324 132.204 91.3015 132.694 89.4199C133.377 86.7956 135.933 85.4348 138.787 86.1782C141.625 86.9173 143.198 89.3361 142.51 91.9768C142.012 93.8914 140.266 95.2519 138.356 95.2126L138.172 96.7331C140.764 96.7914 143.147 94.9449 143.83 92.3206C144.741 88.8216 142.791 85.6174 139.178 84.6763C135.569 83.7186 132.285 85.5771 131.374 89.0761Z" fill="white"/>
<path d="M126.364 102.132C124.598 105.501 125.701 109.123 129.053 110.882C132.374 112.625 135.996 111.482 137.762 108.114C139.528 104.746 138.409 101.116 135.088 99.3729C131.736 97.6141 128.13 98.7645 126.364 102.132ZM127.571 102.766C128.91 100.214 131.755 99.3767 134.367 100.747C136.979 102.118 137.893 104.928 136.554 107.48C135.216 110.033 132.393 110.863 129.782 109.492C127.17 108.121 126.233 105.319 127.571 102.766Z" fill="white"/>
<path d="M122.646 109.41L120.158 112.353C117.471 115.529 117.509 119.181 120.281 121.527C123.053 123.874 126.646 123.296 129.333 120.119L131.822 117.177L122.646 109.41ZM122.686 111.476L129.779 117.48L128.292 119.238C126.222 121.686 123.459 122.206 121.272 120.356C119.073 118.494 119.118 115.695 121.199 113.234L122.686 111.476Z" fill="white"/>
<path d="M114.02 119.041L107.446 124.307L108.298 125.372L113.648 121.087L116.259 124.348L111.574 128.101L112.427 129.166L117.111 125.414L119.455 128.342L114.239 132.521L115.091 133.586L121.532 128.427L114.02 119.041Z" fill="white"/>
<path d="M98.9036 129.066L97.4787 129.722L99.3166 133.719L98.5823 142.449L100.1 141.75L100.571 134.775L100.726 134.704L106.389 138.857L107.875 138.173L100.742 133.064L98.9036 129.066Z" fill="white"/>
<path d="M86.4879 132.953C82.7871 133.824 80.7741 137.031 81.6408 140.716C82.4997 144.369 85.7347 146.358 89.4354 145.487C93.1362 144.616 95.1453 141.393 94.2864 137.74C93.4197 134.055 90.1886 132.082 86.4879 132.953ZM86.8002 134.281C89.6048 133.621 92.1008 135.224 92.7762 138.096C93.4516 140.968 91.9277 143.499 89.1231 144.159C86.3185 144.819 83.843 143.229 83.1676 140.357C82.4922 137.485 83.9956 134.941 86.8002 134.281Z" fill="white"/>
<path d="M73.6927 134.505C70.8288 134.537 68.8066 136.674 68.8392 139.607L68.9214 147.009L70.4727 146.992L70.3905 139.59C70.3666 137.441 71.7474 135.891 73.7079 135.869C75.6683 135.847 77.1002 137.367 77.1241 139.515L77.2063 146.917L78.7746 146.899L78.6924 139.498C78.6599 136.565 76.5566 134.473 73.6927 134.505Z" fill="white"/>
<path d="M65.446 134.642L63.9234 134.344L63.0205 138.963L60.8455 138.538L57.6658 133.12L55.7417 132.743L59.1058 138.285L58.905 138.245C56.6935 137.917 54.846 139.015 54.4535 141.024C54.0282 143.2 55.4433 144.936 58.0032 145.437L63.1398 146.442L65.446 134.642ZM62.7588 140.303L61.8789 144.805L58.2649 144.098C56.575 143.768 55.7078 142.694 55.976 141.322C56.2475 139.933 57.455 139.265 59.1449 139.596L62.7588 140.303Z" fill="white"/>
<path d="M49.9229 130.584L48.505 129.914L46.1368 134.925L41.2511 132.614L40.6681 133.847L45.5539 136.158L43.9509 139.55L38.4486 136.948L37.8657 138.181L44.7859 141.455L49.9229 130.584Z" fill="white"/>
<path d="M37.6856 123.261C35.3626 121.585 32.4668 122.103 30.7515 124.482L26.4234 130.486L27.6817 131.393L32.0098 125.39C33.2663 123.647 35.2977 123.22 36.8878 124.368C38.4779 125.515 38.728 127.588 37.4715 129.331L33.1434 135.334L34.4155 136.252L38.7436 130.249C40.4589 127.87 40.0086 124.937 37.6856 123.261Z" fill="white"/>
<path d="M29.3846 116.719L28.313 115.596L20.6082 122.959L17.8527 120.073L16.8665 121.016L23.4374 127.897L24.4236 126.955L21.6798 124.081L29.3846 116.719Z" fill="white"/>
<path d="M22.3696 107.357C20.7983 104.962 17.9085 104.411 15.4569 106.02L9.27079 110.081L10.1219 111.378L16.308 107.318C18.1039 106.139 20.1537 106.466 21.2293 108.106C22.3048 109.746 21.7983 111.771 20.0023 112.95L13.8163 117.011L14.6767 118.323L20.8628 114.262C23.3144 112.653 23.9408 109.753 22.3696 107.357Z" fill="white"/>
<path d="M17.9103 100.743L17.3354 99.3018L12.9651 101.046L12.1438 98.9868L14.9726 93.3773L14.2461 91.5556L11.4139 97.3867L11.3381 97.1967C10.4155 95.1594 8.49158 94.2012 6.59144 94.9596C4.53296 95.7812 3.84094 97.912 4.80753 100.336L6.74703 105.199L17.9103 100.743ZM11.6984 101.552L7.43889 103.252L6.07429 99.8301C5.43622 98.2301 5.86792 96.9194 7.16634 96.4011C8.4806 95.8766 9.69568 96.5301 10.3338 98.13L11.6984 101.552Z" fill="white"/>
<path d="M13.8233 89.6832L12.2038 81.4152L10.8654 81.6776L12.1833 88.4058L8.08448 89.2093L6.93047 83.3179L5.59207 83.5803L6.74607 89.4716L3.06547 90.1931L1.78032 83.6323L0.441921 83.8947L2.02868 91.9953L13.8233 89.6832Z" fill="white"/>
<path d="M13.7633 61.036C14.3513 58.4063 13.1586 55.6927 10.9431 54.5852L10.3365 55.9699C11.9588 56.8398 12.8566 58.8408 12.4323 60.7382C11.8406 63.3845 9.33301 64.8332 6.45479 64.1891C3.59321 63.5487 1.93782 61.1859 2.53324 58.5229C2.96492 56.5922 4.66256 55.1721 6.57276 55.1452L6.70431 53.6192C4.11178 53.6507 1.79397 55.5787 1.20227 58.2251C0.413337 61.7535 2.47262 64.8883 6.11615 65.7037C9.75595 66.5357 12.9743 64.5645 13.7633 61.036Z" fill="white"/>
<path d="M18.3148 47.7998C19.9657 44.3738 18.7396 40.7911 15.3303 39.147C11.9518 37.5177 8.37105 38.7823 6.72022 42.2083C5.0694 45.6343 6.31082 49.2244 9.68938 50.8537C13.0987 52.4979 16.664 51.2258 18.3148 47.7998ZM17.0863 47.2073C15.8352 49.8037 13.0198 50.7369 10.363 49.4557C7.70626 48.1744 6.69772 45.3971 7.94879 42.8008C9.19986 40.2044 11.9925 39.2792 14.6493 40.5604C17.306 41.8416 18.3373 44.611 17.0863 47.2073Z" fill="white"/>
<path d="M21.7324 40.4311L24.1224 37.4079C26.7027 34.1439 26.5438 30.4956 23.6956 28.2422C20.8473 25.9887 17.2755 26.6853 14.6951 29.9493L12.3052 32.9725L21.7324 40.4311ZM21.625 38.3674L14.3373 32.6016L15.7649 30.7957C17.753 28.2808 20.4973 27.6688 22.7438 29.4461C25.0037 31.2341 25.0513 34.0332 23.0526 36.5615L21.625 38.3674Z" fill="white"/>
<path d="M30.079 30.4405L36.4773 24.9621L35.5904 23.9255L30.3837 28.3836L27.6678 25.2091L32.2269 21.3055L31.34 20.2689L26.7809 24.1725L24.3421 21.3219L29.4193 16.9747L28.5325 15.9381L22.2637 21.3055L30.079 30.4405Z" fill="white"/>
<path d="M44.8102 19.9257L46.2128 19.2235L44.2441 15.2886L44.6905 6.53992L43.1964 7.28797L42.9552 14.2746L42.8028 14.351L37.0068 10.387L35.5433 11.1198L42.8416 15.9908L44.8102 19.9257Z" fill="white"/>
<path d="M57.2071 15.5729C60.8801 14.5916 62.7963 11.3259 61.8198 7.66782C60.8521 4.04274 57.5591 2.15098 53.8861 3.13223C50.213 4.11348 48.3012 7.3957 49.2689 11.0208C50.2454 14.6788 53.534 16.5541 57.2071 15.5729ZM56.8552 14.2547C54.0716 14.9983 51.5287 13.471 50.7678 10.6204C50.0068 7.76974 51.4544 5.19408 54.2379 4.45044C57.0215 3.7068 59.5435 5.22201 60.3045 8.07264C61.0654 10.9233 59.6388 13.511 56.8552 14.2547Z" fill="white"/>
<path d="M69.7617 13.6033C72.6233 13.4838 74.5791 11.2854 74.4567 8.35449L74.148 0.959031L72.598 1.02377L72.9067 8.41923C72.9963 10.5663 71.6636 12.1583 69.7048 12.2401C67.7459 12.3219 66.2681 10.8473 66.1785 8.70023L65.8698 1.30477L64.3027 1.37021L64.6114 8.76567C64.7338 11.6966 66.9001 13.7228 69.7617 13.6033Z" fill="white"/>
<path d="M78.0027 13.1529L79.5337 13.4036L80.2937 8.75816L82.4808 9.11626L85.8261 14.4338L87.7609 14.7506L84.2275 9.31584L84.4294 9.34889C86.6499 9.60877 88.4627 8.45389 88.7931 6.43415C89.151 4.2461 87.683 2.55407 85.1089 2.1326L79.9438 1.28692L78.0027 13.1529ZM80.5139 7.41167L81.2546 2.88409L84.8886 3.4791C86.5879 3.75732 87.4878 4.80332 87.2621 6.18348C87.0335 7.58046 85.8473 8.28489 84.148 8.00667L80.5139 7.41167Z" fill="white"/>
<path d="M93.7072 16.6865L95.1472 17.3084L97.3433 12.2196L102.305 14.3625L102.846 13.1099L97.8839 10.9669L99.3705 7.52214L104.958 9.93553L105.499 8.68288L98.4711 5.64756L93.7072 16.6865Z" fill="white"/>
<path d="M106.071 23.4926C108.448 25.0902 111.325 24.4758 112.96 22.0407L117.086 15.8963L115.798 15.0309L111.672 21.1753C110.475 22.9592 108.459 23.4536 106.831 22.36C105.204 21.2663 104.884 19.2028 106.082 17.419L110.208 11.2745L108.906 10.3996L104.78 16.5441C103.145 18.9792 103.693 21.8949 106.071 23.4926Z" fill="white"/>
<path d="M114.631 29.7335L115.739 30.82L123.198 23.2082L126.047 26.002L127.001 25.0277L120.208 18.3655L119.254 19.3398L122.09 22.1217L114.631 29.7335Z" fill="white"/>
<path d="M122.175 39.0991C123.815 41.4479 126.72 41.9146 129.124 40.2347L135.189 35.9957L134.301 34.7234L128.235 38.9623C126.474 40.193 124.416 39.9256 123.293 38.3177C122.17 36.7098 122.618 34.6703 124.379 33.4397L130.444 29.2008L129.546 27.9145L123.48 32.1534C121.077 33.8333 120.535 36.7502 122.175 39.0991Z" fill="white"/>
<path d="M126.863 45.5946L127.48 47.0186L131.797 45.1464L132.678 47.1806L130.016 52.8709L130.796 54.6705L133.455 48.7584L133.536 48.9462C134.518 50.9554 136.47 51.8565 138.347 51.0425C140.38 50.1607 141.009 48.0104 139.972 45.6163L137.89 40.8123L126.863 45.5946ZM133.048 44.6037L137.256 42.779L138.72 46.1589C139.405 47.7394 139.012 49.0623 137.73 49.6185C136.431 50.1816 135.198 49.5641 134.513 47.9837L133.048 44.6037Z" fill="white"/>
<path d="M131.22 56.278L133.117 64.4865L134.446 64.179L132.902 57.4992L136.971 56.5577L138.323 62.4066L139.652 62.0992L138.3 56.2502L141.954 55.4047L143.46 61.9183L144.789 61.6109L142.929 53.5685L131.22 56.278Z" fill="white"/>
<path d="M6.10991 74.1669C6.1212 74.7948 5.62159 75.3129 4.99399 75.3242C4.3664 75.3355 3.84847 74.8357 3.83718 74.2078C3.82588 73.58 4.32549 73.0619 4.95309 73.0506C5.58069 73.0393 6.09861 73.5391 6.10991 74.1669Z" fill="white"/>
<path d="M141.378 74.0078C141.389 74.6356 140.89 75.1537 140.262 75.165C139.635 75.1763 139.117 74.6765 139.105 74.0487C139.094 73.4208 139.594 72.9027 140.221 72.8914C140.849 72.8801 141.367 73.3799 141.378 74.0078Z" fill="white"/>
</svg>
