<svg width="50" height="58" viewBox="0 0 50 58" fill="none" xmlns="http://www.w3.org/2000/svg">
<path d="M25.941 16.4915L23.3422 12.3184L16.3414 24.7372L22.7669 19.4957L25.5422 22.4525L27.0659 20.8874L33.1165 25.0111L27.6412 15.7701L26.1156 16.7636L25.941 16.4915Z" fill="url(#paint0_linear_6239_426)"/>
<path d="M21.5648 0V6.65685L7.10006 20.2025L3.76599 16.8914L21.5648 0Z" fill="url(#paint1_linear_6239_426)"/>
<path d="M3.76599 16.8914L0 20.4673L21.5648 40.2735V33.781L7.10006 20.2025" fill="url(#paint2_linear_6239_426)"/>
<path d="M28.4352 0.065744V6.72259L42.8999 20.2682L46.234 16.9572L28.4352 0.065744Z" fill="url(#paint3_linear_6239_426)"/>
<path d="M46.234 16.9572L50 20.5349L28.4352 40.3392V33.8486L42.8999 20.2682" fill="url(#paint4_linear_6239_426)"/>
<path d="M5.46279 51.5235V45.9101H7.3716C7.81478 45.9101 8.17704 45.9896 8.4584 46.1486C8.7416 46.3057 8.95123 46.5186 9.08731 46.7872C9.22339 47.0558 9.29143 47.3555 9.29143 47.6862C9.29143 48.017 9.22339 48.3176 9.08731 48.588C8.95307 48.8584 8.74527 49.074 8.46392 49.2348C8.18256 49.3938 7.82213 49.4733 7.38263 49.4733H6.01447V48.8703H7.36056C7.66398 48.8703 7.90764 48.8182 8.09153 48.7141C8.27543 48.6099 8.40875 48.4692 8.4915 48.292C8.57609 48.1129 8.61839 47.911 8.61839 47.6862C8.61839 47.4615 8.57609 47.2605 8.4915 47.0832C8.40875 46.906 8.27451 46.7671 8.08878 46.6666C7.90304 46.5643 7.65663 46.5131 7.34953 46.5131H6.14687V51.5235H5.46279Z" fill="#474648"/>
<path d="M10.3934 51.5235V45.9101H13.8028V46.5131H11.0775V48.4098H13.6262V49.0128H11.0775V50.9205H13.8469V51.5235H10.3934Z" fill="#474648"/>
<path d="M15.2675 51.5235H14.5503L16.6246 45.9101H17.3308L19.4051 51.5235H18.6879L16.9998 46.7982H16.9556L15.2675 51.5235ZM15.5323 49.3308H18.4231V49.9338H15.5323V49.3308Z" fill="#474648"/>
<path d="M20.285 51.5235V45.9101H20.9691V48.6949H21.0353L23.573 45.9101H24.4667L22.0945 48.4427L24.4667 51.5235H23.6392L21.6752 48.9141L20.9691 49.7035V51.5235H20.285Z" fill="#474648"/>
<path d="M28.4416 47.3135C28.4085 47.0357 28.2742 46.8201 28.0388 46.6666C27.8034 46.5131 27.5147 46.4364 27.1727 46.4364C26.9226 46.4364 26.7038 46.4766 26.5162 46.557C26.3305 46.6374 26.1852 46.7479 26.0804 46.8886C25.9774 47.0293 25.9259 47.1892 25.9259 47.3683C25.9259 47.5181 25.9618 47.6469 26.0335 47.7548C26.107 47.8607 26.2008 47.9494 26.3148 48.0206C26.4288 48.0901 26.5484 48.1476 26.6734 48.1933C26.7985 48.2372 26.9134 48.2728 27.0182 48.3002L27.592 48.4537C27.7391 48.4921 27.9028 48.545 28.083 48.6127C28.265 48.6803 28.4388 48.7725 28.6043 48.8895C28.7716 49.0046 28.9096 49.1526 29.0181 49.3335C29.1266 49.5144 29.1808 49.7364 29.1808 49.9995C29.1808 50.3029 29.1008 50.5769 28.9408 50.8218C28.7827 51.0667 28.551 51.2613 28.2457 51.4056C27.9423 51.55 27.5736 51.6221 27.1396 51.6221C26.735 51.6221 26.3847 51.5573 26.0886 51.4275C25.7944 51.2978 25.5627 51.1169 25.3935 50.8848C25.2262 50.6528 25.1315 50.3833 25.1094 50.0763H25.8156C25.834 50.2882 25.9057 50.4637 26.0307 50.6025C26.1576 50.7396 26.3176 50.8419 26.5107 50.9095C26.7056 50.9753 26.9152 51.0082 27.1396 51.0082C27.4007 51.0082 27.6352 50.9661 27.843 50.8821C28.0508 50.7962 28.2154 50.6774 28.3367 50.5258C28.4581 50.3723 28.5188 50.1932 28.5188 49.9886C28.5188 49.8022 28.4664 49.6505 28.3616 49.5336C28.2567 49.4166 28.1188 49.3216 27.9478 49.2485C27.7768 49.1754 27.592 49.1115 27.3934 49.0567L26.6983 48.8593C26.2569 48.7332 25.9075 48.5533 25.6501 48.3194C25.3926 48.0855 25.2639 47.7794 25.2639 47.4012C25.2639 47.0869 25.3494 46.8128 25.5204 46.5789C25.6933 46.3432 25.925 46.1605 26.2155 46.0307C26.5079 45.8992 26.8343 45.8334 27.1948 45.8334C27.5589 45.8334 27.8825 45.8983 28.1657 46.028C28.4489 46.1559 28.6733 46.3313 28.8388 46.5543C29.0061 46.7772 29.0944 47.0303 29.1036 47.3135H28.4416Z" fill="#474648"/>
<path d="M35.072 48.7168C35.072 49.3088 34.9645 49.8205 34.7493 50.2517C34.5341 50.6829 34.239 51.0155 33.8639 51.2494C33.4887 51.4833 33.0602 51.6002 32.5784 51.6002C32.0966 51.6002 31.6682 51.4833 31.293 51.2494C30.9179 51.0155 30.6227 50.6829 30.4076 50.2517C30.1924 49.8205 30.0849 49.3088 30.0849 48.7168C30.0849 48.1248 30.1924 47.6131 30.4076 47.1819C30.6227 46.7507 30.9179 46.4181 31.293 46.1842C31.6682 45.9503 32.0966 45.8334 32.5784 45.8334C33.0602 45.8334 33.4887 45.9503 33.8639 46.1842C34.239 46.4181 34.5341 46.7507 34.7493 47.1819C34.9645 47.6131 35.072 48.1248 35.072 48.7168ZM34.41 48.7168C34.41 48.2308 34.3282 47.8205 34.1645 47.4861C34.0027 47.1518 33.7829 46.8987 33.5053 46.7269C33.2294 46.5552 32.9205 46.4693 32.5784 46.4693C32.2364 46.4693 31.9265 46.5552 31.6489 46.7269C31.373 46.8987 31.1533 47.1518 30.9896 47.4861C30.8278 47.8205 30.7469 48.2308 30.7469 48.7168C30.7469 49.2029 30.8278 49.6131 30.9896 49.9475C31.1533 50.2818 31.373 50.5349 31.6489 50.7067C31.9265 50.8784 32.2364 50.9643 32.5784 50.9643C32.9205 50.9643 33.2294 50.8784 33.5053 50.7067C33.7829 50.5349 34.0027 50.2818 34.1645 49.9475C34.3282 49.6131 34.41 49.2029 34.41 48.7168Z" fill="#474648"/>
<path d="M36.2223 51.5235V45.9101H39.6096V46.5131H36.9064V48.4098H39.3558V49.0128H36.9064V51.5235H36.2223Z" fill="#474648"/>
<path d="M40.4723 46.5131V45.9101H44.7092V46.5131H42.9328V51.5235H42.2487V46.5131H40.4723Z" fill="#474648"/>
<path d="M17.6601 57.9447V54.8002H18.0433V56.2005H19.7307V54.8002H20.1139V57.9447H19.7307V56.5383H18.0433V57.9447H17.6601Z" fill="#474648"/>
<path d="M23.5513 56.3725C23.5513 56.7041 23.491 56.9907 23.3705 57.2323C23.25 57.4739 23.0846 57.6602 22.8745 57.7912C22.6643 57.9222 22.4243 57.9877 22.1544 57.9877C21.8845 57.9877 21.6445 57.9222 21.4343 57.7912C21.2242 57.6602 21.0588 57.4739 20.9383 57.2323C20.8178 56.9907 20.7575 56.7041 20.7575 56.3725C20.7575 56.0408 20.8178 55.7542 20.9383 55.5126C21.0588 55.271 21.2242 55.0847 21.4343 54.9537C21.6445 54.8227 21.8845 54.7572 22.1544 54.7572C22.4243 54.7572 22.6643 54.8227 22.8745 54.9537C23.0846 55.0847 23.25 55.271 23.3705 55.5126C23.491 55.7542 23.5513 56.0408 23.5513 56.3725ZM23.1804 56.3725C23.1804 56.1002 23.1346 55.8704 23.0429 55.6831C22.9523 55.4957 22.8291 55.354 22.6736 55.2577C22.5191 55.1615 22.346 55.1134 22.1544 55.1134C21.9628 55.1134 21.7892 55.1615 21.6337 55.2577C21.4791 55.354 21.356 55.4957 21.2643 55.6831C21.1737 55.8704 21.1284 56.1002 21.1284 56.3725C21.1284 56.6447 21.1737 56.8745 21.2643 57.0619C21.356 57.2492 21.4791 57.3909 21.6337 57.4872C21.7892 57.5834 21.9628 57.6315 22.1544 57.6315C22.346 57.6315 22.5191 57.5834 22.6736 57.4872C22.8291 57.3909 22.9523 57.2492 23.0429 57.0619C23.1346 56.8745 23.1804 56.6447 23.1804 56.3725Z" fill="#474648"/>
<path d="M26.2724 54.8002H26.6557V56.8822C26.6557 57.0972 26.6047 57.2891 26.5027 57.458C26.4017 57.6259 26.259 57.7584 26.0746 57.8557C25.8903 57.9519 25.6739 58 25.4257 58C25.1774 58 24.9611 57.9519 24.7767 57.8557C24.5923 57.7584 24.4491 57.6259 24.3471 57.458C24.2461 57.2891 24.1956 57.0972 24.1956 56.8822V54.8002H24.5789V56.8515C24.5789 57.005 24.6129 57.1417 24.6809 57.2615C24.7488 57.3802 24.8457 57.4739 24.9714 57.5424C25.0981 57.61 25.2495 57.6438 25.4257 57.6438C25.6018 57.6438 25.7532 57.61 25.88 57.5424C26.0067 57.4739 26.1035 57.3802 26.1705 57.2615C26.2384 57.1417 26.2724 57.005 26.2724 56.8515V54.8002Z" fill="#474648"/>
<path d="M29.1516 55.5863C29.1331 55.4307 29.0579 55.3099 28.926 55.224C28.7941 55.138 28.6324 55.095 28.4408 55.095C28.3007 55.095 28.1781 55.1175 28.073 55.1625C27.969 55.2076 27.8876 55.2695 27.8289 55.3483C27.7712 55.4271 27.7423 55.5167 27.7423 55.617C27.7423 55.701 27.7624 55.7731 27.8026 55.8335C27.8438 55.8929 27.8964 55.9425 27.9602 55.9825C28.0241 56.0214 28.091 56.0536 28.1611 56.0792C28.2312 56.1038 28.2955 56.1237 28.3543 56.1391L28.6757 56.2251C28.7581 56.2466 28.8498 56.2762 28.9507 56.3141C29.0527 56.352 29.1501 56.4037 29.2428 56.4692C29.3365 56.5337 29.4138 56.6166 29.4745 56.7179C29.5353 56.8193 29.5657 56.9436 29.5657 57.091C29.5657 57.2609 29.5209 57.4145 29.4313 57.5517C29.3427 57.6888 29.2129 57.7978 29.0419 57.8787C28.8719 57.9596 28.6654 58 28.4222 58C28.1956 58 27.9994 57.9637 27.8335 57.891C27.6687 57.8183 27.5389 57.717 27.4441 57.587C27.3504 57.457 27.2973 57.306 27.285 57.134H27.6805C27.6908 57.2528 27.731 57.351 27.8011 57.4288C27.8721 57.5056 27.9618 57.5629 28.0699 57.6008C28.1791 57.6376 28.2966 57.6561 28.4222 57.6561C28.5685 57.6561 28.6999 57.6325 28.8163 57.5854C28.9327 57.5373 29.0249 57.4708 29.0929 57.3858C29.1609 57.2998 29.1949 57.1995 29.1949 57.0849C29.1949 56.9805 29.1655 56.8955 29.1068 56.83C29.0481 56.7645 28.9708 56.7113 28.875 56.6703C28.7792 56.6294 28.6757 56.5936 28.5644 56.5628L28.175 56.4523C27.9278 56.3817 27.732 56.2808 27.5878 56.1498C27.4436 56.0188 27.3715 55.8473 27.3715 55.6354C27.3715 55.4594 27.4194 55.3058 27.5152 55.1748C27.612 55.0428 27.7418 54.9404 27.9046 54.8677C28.0684 54.794 28.2512 54.7572 28.4532 54.7572C28.6571 54.7572 28.8384 54.7935 28.9971 54.8662C29.1557 54.9379 29.2814 55.0361 29.3741 55.161C29.4679 55.2859 29.5173 55.4277 29.5224 55.5863H29.1516Z" fill="#474648"/>
<path d="M30.1958 57.9447V54.8002H32.1057V55.138H30.579V56.2005H32.0068V56.5383H30.579V57.6069H32.1304V57.9447H30.1958Z" fill="#474648"/>
<defs>
<linearGradient id="paint0_linear_6239_426" x1="2.13104" y1="43.7545" x2="52.3672" y2="34.162" gradientUnits="userSpaceOnUse">
<stop offset="0.36" stop-color="#08B6E5"/>
<stop offset="0.67" stop-color="#0C81C3"/>
</linearGradient>
<linearGradient id="paint1_linear_6239_426" x1="0" y1="29" x2="50" y2="29" gradientUnits="userSpaceOnUse">
<stop stop-color="#077CC1"/>
<stop offset="1" stop-color="#34BBED"/>
</linearGradient>
<linearGradient id="paint2_linear_6239_426" x1="8.80849" y1="28.9977" x2="58.8128" y2="28.9977" gradientUnits="userSpaceOnUse">
<stop stop-color="#0FBBEE"/>
<stop offset="0.44" stop-color="#119ED9"/>
<stop offset="1" stop-color="#1373BA"/>
</linearGradient>
<linearGradient id="paint3_linear_6239_426" x1="49.9948" y1="29" x2="-0.00516176" y2="29" gradientUnits="userSpaceOnUse">
<stop stop-color="#077CC1"/>
<stop offset="1" stop-color="#34BBED"/>
</linearGradient>
<linearGradient id="paint4_linear_6239_426" x1="41.1873" y1="28.9977" x2="-8.81275" y2="28.9977" gradientUnits="userSpaceOnUse">
<stop stop-color="#0FBBEE"/>
<stop offset="0.44" stop-color="#119ED9"/>
<stop offset="1" stop-color="#1373BA"/>
</linearGradient>
</defs>
</svg>
