<svg width="86" height="100" viewBox="0 0 86 100" fill="none" xmlns="http://www.w3.org/2000/svg">
<path d="M44.3632 28.4244L39.9187 21.2317L27.9463 42.6366L38.9349 33.6025L43.6812 38.6987L46.2869 36.0011L56.6343 43.1088L47.2707 27.181L44.6618 28.8934L44.3632 28.4244Z" fill="url(#paint0_linear_3904_6838)"/>
<path d="M36.8792 0V11.4736L12.1422 34.8207L6.44043 29.1138L36.8792 0Z" fill="url(#paint1_linear_3904_6838)"/>
<path d="M6.44043 29.1138L0 35.2771L36.8792 69.4147V58.2244L12.1422 34.8207" fill="url(#paint2_linear_3904_6838)"/>
<path d="M48.6286 0.113315V11.5869L73.3656 34.934L79.0674 29.2271L48.6286 0.113315Z" fill="url(#paint3_linear_3904_6838)"/>
<path d="M79.0674 29.2271L85.5078 35.3936L48.6286 69.528V58.3408L73.3656 34.934" fill="url(#paint4_linear_3904_6838)"/>
<path d="M8.08494 88.805V79.13H11.3493C12.1072 79.13 12.7267 79.267 13.2079 79.541C13.6922 79.8118 14.0507 80.1787 14.2834 80.6417C14.5162 81.1047 14.6325 81.6212 14.6325 82.1912C14.6325 82.7612 14.5162 83.2793 14.2834 83.7454C14.0539 84.2116 13.6985 84.5832 13.2173 84.8603C12.7362 85.1343 12.1198 85.2713 11.3682 85.2713H9.0284V84.232H11.3304C11.8493 84.232 12.266 84.1423 12.5805 83.9627C12.895 83.7832 13.123 83.5407 13.2645 83.2352C13.4092 82.9266 13.4815 82.5786 13.4815 82.1912C13.4815 81.8038 13.4092 81.4574 13.2645 81.1519C13.123 80.8464 12.8934 80.607 12.5758 80.4338C12.2582 80.2575 11.8367 80.1693 11.3116 80.1693H9.25482V88.805H8.08494Z" fill="white"/>
<path d="M16.9156 88.805V79.13H22.7461V80.1693H18.0855V83.4384H22.4442V84.4777H18.0855V87.7657H22.8216V88.805H16.9156Z" fill="white"/>
<path d="M25.6495 88.805H24.423L27.9704 79.13H29.1781L32.7254 88.805H31.499L28.612 80.6606H28.5365L25.6495 88.805ZM26.1024 85.0257H31.0461V86.065H26.1024V85.0257Z" fill="white"/>
<path d="M34.6288 88.805V79.13H35.7987V83.9297H35.9119L40.2518 79.13H41.7802L37.7233 83.4951L41.7802 88.805H40.365L37.0063 84.3076L35.7987 85.6682V88.805H34.6288Z" fill="white"/>
<path d="M48.9763 81.5487C48.9197 81.07 48.6901 80.6984 48.2876 80.4338C47.885 80.1693 47.3913 80.037 46.8063 80.037C46.3786 80.037 46.0044 80.1063 45.6836 80.2449C45.366 80.3834 45.1175 80.574 44.9383 80.8165C44.7622 81.059 44.6741 81.3346 44.6741 81.6432C44.6741 81.9015 44.7354 82.1235 44.8581 82.3093C44.9839 82.492 45.1443 82.6447 45.3393 82.7675C45.5342 82.8872 45.7387 82.9864 45.9525 83.0652C46.1664 83.1408 46.3629 83.2022 46.5422 83.2494L47.5234 83.514C47.7749 83.5801 48.0548 83.6714 48.363 83.788C48.6744 83.9045 48.9716 84.0635 49.2546 84.2651C49.5408 84.4635 49.7766 84.7186 49.9622 85.0304C50.1477 85.3422 50.2405 85.7249 50.2405 86.1784C50.2405 86.7012 50.1037 87.1736 49.8301 87.5956C49.5597 88.0176 49.1634 88.353 48.6413 88.6019C48.1225 88.8507 47.4919 88.9751 46.7497 88.9751C46.0579 88.9751 45.4588 88.8633 44.9524 88.6396C44.4493 88.416 44.053 88.1042 43.7637 87.7043C43.4775 87.3043 43.3155 86.8397 43.2778 86.3106H44.4854C44.5169 86.676 44.6395 86.9783 44.8534 87.2177C45.0704 87.4539 45.344 87.6302 45.6742 87.7468C46.0075 87.8602 46.3661 87.9168 46.7497 87.9168C47.1963 87.9168 47.5973 87.8444 47.9526 87.6995C48.308 87.5515 48.5895 87.3468 48.797 87.0854C49.0046 86.8208 49.1084 86.5122 49.1084 86.1595C49.1084 85.8382 49.0187 85.5768 48.8395 85.3753C48.6602 85.1737 48.4244 85.0099 48.1319 84.884C47.8394 84.758 47.5234 84.6478 47.1837 84.5533L45.995 84.2131C45.2402 83.9958 44.6427 83.6856 44.2024 83.2825C43.7621 82.8793 43.542 82.3518 43.542 81.6999C43.542 81.1582 43.6882 80.6858 43.9807 80.2827C44.2763 79.8764 44.6726 79.5614 45.1694 79.3378C45.6695 79.1111 46.2277 78.9977 46.8441 78.9977C47.4668 78.9977 48.0202 79.1095 48.5046 79.3331C48.9889 79.5536 49.3725 79.8559 49.6556 80.2401C49.9417 80.6244 50.0927 81.0606 50.1084 81.5487H48.9763Z" fill="white"/>
<path d="M60.714 83.9675C60.714 84.9879 60.53 85.8697 60.162 86.613C59.7941 87.3562 59.2893 87.9294 58.6478 88.3326C58.0062 88.7357 57.2735 88.9373 56.4495 88.9373C55.6256 88.9373 54.8928 88.7357 54.2513 88.3326C53.6097 87.9294 53.105 87.3562 52.737 86.613C52.3691 85.8697 52.1851 84.9879 52.1851 83.9675C52.1851 82.9471 52.3691 82.0652 52.737 81.322C53.105 80.5787 53.6097 80.0055 54.2513 79.6024C54.8928 79.1992 55.6256 78.9977 56.4495 78.9977C57.2735 78.9977 58.0062 79.1992 58.6478 79.6024C59.2893 80.0055 59.7941 80.5787 60.162 81.322C60.53 82.0652 60.714 82.9471 60.714 83.9675ZM59.5818 83.9675C59.5818 83.1297 59.4419 82.4227 59.162 81.8463C58.8852 81.27 58.5094 80.8338 58.0345 80.5378C57.5628 80.2417 57.0345 80.0937 56.4495 80.0937C55.8646 80.0937 55.3347 80.2417 54.8598 80.5378C54.3881 80.8338 54.0123 81.27 53.7324 81.8463C53.4556 82.4227 53.3173 83.1297 53.3173 83.9675C53.3173 84.8052 53.4556 85.5123 53.7324 86.0886C54.0123 86.6649 54.3881 87.1011 54.8598 87.3972C55.3347 87.6932 55.8646 87.8413 56.4495 87.8413C57.0345 87.8413 57.5628 87.6932 58.0345 87.3972C58.5094 87.1011 58.8852 86.6649 59.162 86.0886C59.4419 85.5123 59.5818 84.8052 59.5818 83.9675Z" fill="white"/>
<path d="M63.0796 88.805V79.13H68.8724V80.1693H64.2495V83.4384H68.4384V84.4777H64.2495V88.805H63.0796Z" fill="white"/>
<path d="M70.7462 80.1693V79.13H77.992V80.1693H74.954V88.805H73.7841V80.1693H70.7462Z" fill="white"/>
<path d="M29.8872 99.1549V93.735H30.5425V96.1485H33.4283V93.735H34.0836V99.1549H33.4283V96.7307H30.5425V99.1549H29.8872Z" fill="white"/>
<path d="M40.1853 96.4449C40.1853 97.0165 40.0822 97.5105 39.8761 97.9269C39.67 98.3433 39.3872 98.6644 39.0278 98.8902C38.6685 99.1161 38.258 99.229 37.7964 99.229C37.3348 99.229 36.9243 99.1161 36.565 98.8902C36.2056 98.6644 35.9228 98.3433 35.7167 97.9269C35.5106 97.5105 35.4075 97.0165 35.4075 96.4449C35.4075 95.8733 35.5106 95.3793 35.7167 94.9629C35.9228 94.5465 36.2056 94.2255 36.565 93.9996C36.9243 93.7738 37.3348 93.6609 37.7964 93.6609C38.258 93.6609 38.6685 93.7738 39.0278 93.9996C39.3872 94.2255 39.67 94.5465 39.8761 94.9629C40.0822 95.3793 40.1853 95.8733 40.1853 96.4449ZM39.5511 96.4449C39.5511 95.9756 39.4727 95.5795 39.3159 95.2567C39.1609 94.9338 38.9503 94.6895 38.6843 94.5236C38.4201 94.3578 38.1241 94.2749 37.7964 94.2749C37.4687 94.2749 37.1719 94.3578 36.9058 94.5236C36.6416 94.6895 36.4311 94.9338 36.2743 95.2567C36.1192 95.5795 36.0417 95.9756 36.0417 96.4449C36.0417 96.9142 36.1192 97.3103 36.2743 97.6332C36.4311 97.956 36.6416 98.2004 36.9058 98.3662C37.1719 98.5321 37.4687 98.615 37.7964 98.615C38.1241 98.615 38.4201 98.5321 38.6843 98.3662C38.9503 98.2004 39.1609 97.956 39.3159 97.6332C39.4727 97.3103 39.5511 96.9142 39.5511 96.4449Z" fill="white"/>
<path d="M45.0621 93.735H45.7175V97.3235C45.7175 97.694 45.6303 98.0248 45.4559 98.3159C45.2832 98.6053 45.0392 98.8338 44.7239 99.0014C44.4085 99.1672 44.0386 99.2501 43.614 99.2501C43.1894 99.2501 42.8195 99.1672 42.5041 99.0014C42.1888 98.8338 41.9439 98.6053 41.7695 98.3159C41.5968 98.0248 41.5105 97.694 41.5105 97.3235V93.735H42.1659V97.2706C42.1659 97.5352 42.224 97.7708 42.3403 97.9772C42.4566 98.1819 42.6222 98.3433 42.8371 98.4615C43.0538 98.5779 43.3128 98.6362 43.614 98.6362C43.9153 98.6362 44.1742 98.5779 44.3909 98.4615C44.6076 98.3433 44.7732 98.1819 44.8877 97.9772C45.004 97.7708 45.0621 97.5352 45.0621 97.2706V93.735Z" fill="white"/>
<path d="M50.2092 95.09C50.1775 94.8218 50.0489 94.6136 49.8234 94.4654C49.5979 94.3172 49.3213 94.2431 48.9936 94.2431C48.754 94.2431 48.5444 94.2819 48.3647 94.3595C48.1867 94.4372 48.0476 94.5439 47.9471 94.6798C47.8485 94.8156 47.7992 94.97 47.7992 95.1429C47.7992 95.2875 47.8335 95.4119 47.9022 95.516C47.9727 95.6184 48.0625 95.7039 48.1718 95.7727C48.281 95.8398 48.3955 95.8953 48.5153 95.9395C48.6351 95.9818 48.7452 96.0162 48.8456 96.0427L49.3953 96.1909C49.5362 96.2279 49.693 96.2791 49.8657 96.3444C50.0401 96.4096 50.2066 96.4987 50.3651 96.6116C50.5254 96.7228 50.6576 96.8657 50.7615 97.0404C50.8654 97.215 50.9174 97.4294 50.9174 97.6834C50.9174 97.9763 50.8408 98.241 50.6875 98.4774C50.536 98.7138 50.314 98.9017 50.0216 99.0411C49.7309 99.1804 49.3777 99.2501 48.9619 99.2501C48.5743 99.2501 48.2387 99.1875 47.9551 99.0622C47.6732 98.937 47.4512 98.7623 47.2891 98.5382C47.1288 98.3142 47.0381 98.0539 47.0169 97.7575H47.6935C47.7111 97.9622 47.7798 98.1316 47.8996 98.2657C48.0211 98.398 48.1744 98.4968 48.3594 98.5621C48.5461 98.6256 48.747 98.6573 48.9619 98.6573C49.2121 98.6573 49.4367 98.6168 49.6358 98.5356C49.8348 98.4527 49.9925 98.338 50.1088 98.1916C50.2251 98.0434 50.2832 97.8705 50.2832 97.6729C50.2832 97.4929 50.233 97.3465 50.1326 97.2336C50.0321 97.1206 49.9 97.0289 49.7362 96.9583C49.5723 96.8878 49.3953 96.826 49.205 96.7731L48.5391 96.5825C48.1163 96.4608 47.7815 96.287 47.5349 96.0612C47.2883 95.8354 47.1649 95.5398 47.1649 95.1746C47.1649 94.8712 47.2469 94.6065 47.4107 94.3807C47.5763 94.1531 47.7983 93.9767 48.0766 93.8514C48.3567 93.7244 48.6694 93.6609 49.0147 93.6609C49.3636 93.6609 49.6736 93.7235 49.9449 93.8488C50.2162 93.9723 50.4312 94.1416 50.5897 94.3569C50.75 94.5721 50.8346 94.8165 50.8434 95.09H50.2092Z" fill="white"/>
<path d="M52.2182 99.1549V93.735H55.4844V94.3172H52.8735V96.1485H55.3153V96.7307H52.8735V98.5726H55.5267V99.1549H52.2182Z" fill="white"/>
<defs>
<linearGradient id="paint0_linear_3904_6838" x1="3.64441" y1="74.8732" x2="89.5598" y2="58.4779" gradientUnits="userSpaceOnUse">
<stop offset="0.36" stop-color="#08B6E5"/>
<stop offset="0.67" stop-color="#0C81C3"/>
</linearGradient>
<linearGradient id="paint1_linear_3904_6838" x1="0" y1="49.6251" x2="85.5078" y2="49.6251" gradientUnits="userSpaceOnUse">
<stop stop-color="#077CC1"/>
<stop offset="1" stop-color="#34BBED"/>
</linearGradient>
<linearGradient id="paint2_linear_3904_6838" x1="15.0639" y1="49.6212" x2="100.579" y2="49.6212" gradientUnits="userSpaceOnUse">
<stop stop-color="#0FBBEE"/>
<stop offset="0.44" stop-color="#119ED9"/>
<stop offset="1" stop-color="#1373BA"/>
</linearGradient>
<linearGradient id="paint3_linear_3904_6838" x1="85.499" y1="49.6251" x2="-0.00882742" y2="49.6251" gradientUnits="userSpaceOnUse">
<stop stop-color="#077CC1"/>
<stop offset="1" stop-color="#34BBED"/>
</linearGradient>
<linearGradient id="paint4_linear_3904_6838" x1="70.4366" y1="49.6212" x2="-15.0712" y2="49.6212" gradientUnits="userSpaceOnUse">
<stop stop-color="#0FBBEE"/>
<stop offset="0.44" stop-color="#119ED9"/>
<stop offset="1" stop-color="#1373BA"/>
</linearGradient>
</defs>
</svg>
