<svg width="956.000000" height="170.000000" viewBox="0 0 956 170" fill="none" xmlns="http://www.w3.org/2000/svg" xmlns:xlink="http://www.w3.org/1999/xlink">
	<desc>
			Created with Pixso.
	</desc>
	<defs>
		<linearGradient x1="911.791016" y1="-47.489380" x2="492.345001" y2="124.085083" id="paint_linear_125_238_0" gradientUnits="userSpaceOnUse">
			<stop stop-color="#FF5B91"/>
			<stop offset="1.000000" stop-color="#368AEE"/>
		</linearGradient>
	</defs>
	<path id="Peak" d="M105.32 30.87Q99.12 25.28 86.92 25.28L3.12 25.28L3.12 115L25.16 115L25.16 85.48L86.92 85.48Q100.43 85.48 106.53 78.75Q111.56 73.21 111.56 63.12L111.56 47.64Q111.56 37.8 106.68 32.25Q106.04 31.53 105.32 30.87ZM24.16 85.48L24.16 84.48L86.92 84.48C102.68 84.48 110.56 77.36 110.56 63.12L110.56 47.64Q110.56 38.03 105.78 32.75Q99.93 26.28 86.92 26.28L4.12 26.28L4.12 114L24.16 114L24.16 85.48ZM211.35 71.56L211.35 56.84L146.91 56.84L146.91 42.28L228.39 42.28L228.39 25.28L124.87 25.28L124.87 115L228.39 115L228.39 98L146.91 98L146.91 71.56L211.35 71.56ZM145.91 71.56L145.91 70.56L210.35 70.56L210.35 57.84L145.91 57.84L145.91 41.28L227.39 41.28L227.39 26.28L125.87 26.28L125.87 114L227.39 114L227.39 99L145.91 99L145.91 71.56ZM350.98 115L350.98 45.24Q350.98 36.65 346.74 31.72Q346.07 30.95 345.31 30.27Q339.68 25.28 328.62 25.28L263.94 25.28Q251.63 25.28 246.13 31.4Q241.7 36.33 241.7 45.24L241.7 115L263.74 115L263.74 85.36L328.94 85.36L328.94 115L350.98 115ZM329.94 85.36L329.94 114L349.98 114L349.98 45.24C349.98 32.59 342.86 26.28 328.62 26.28L263.94 26.28Q252.12 26.28 246.88 32.15Q242.7 36.83 242.7 45.24L242.7 114L262.74 114L262.74 84.36L329.94 84.36L329.94 85.36ZM480.83 115L480.83 112.74L437.43 68.87L478.31 27.53L478.31 25.28L455.18 25.28L417.38 61.52L388.91 61.52L388.91 25.28L366.87 25.28L366.87 115L388.91 115L388.91 76.24L417.26 76.24L456.86 115L480.83 115ZM417.67 75.24L457.27 114L479.83 114L479.83 113.16L479.67 113L436.03 68.87L477.15 27.28L477.31 27.12L477.31 26.28L455.59 26.28L417.79 62.52L387.91 62.52L387.91 26.28L367.87 26.28L367.87 114L387.91 114L387.91 75.24L417.67 75.24ZM25.16 42.28L80.56 42.28Q85.46 42.28 87.75 44.72Q89.76 46.86 89.76 50.88L89.76 60.36Q89.76 64.62 87.62 66.73Q87.57 66.78 87.52 66.83Q85.26 68.96 80.56 68.96L25.16 68.96L25.16 42.28ZM24.16 42.28L24.16 41.28L80.56 41.28C87.36 41.28 90.76 44.48 90.76 50.88L90.76 60.36Q90.76 64.86 88.5 67.26Q85.96 69.96 80.56 69.96L24.16 69.96L24.16 42.28ZM328.94 71.64L329.94 71.64L329.94 49.8C329.94 44.12 326.86 41.28 320.7 41.28L271.86 41.28C265.78 41.28 262.74 44.12 262.74 49.8L262.74 71.64L328.94 71.64ZM328.94 70.64L263.74 70.64L263.74 49.8Q263.74 46.07 265.61 44.23Q265.66 44.18 265.71 44.14Q267.7 42.28 271.86 42.28L320.7 42.28Q325.2 42.28 327.24 44.51Q328.94 46.38 328.94 49.8L328.94 70.64Z" fill="#54A1FC" fill-opacity="1.000000" fill-rule="evenodd"/>
	<path id="house" d="M40.77 141.86Q38.53 140.55 35.46 140.55C33.43 140.55 31.67 140.98 30.18 141.86C28.69 142.73 27.54 143.98 26.73 145.6C25.91 147.22 25.51 149.17 25.51 151.43C25.51 153.69 25.91 155.63 26.73 157.25Q27.51 158.81 28.71 159.91Q29.38 160.53 30.18 161C31.67 161.87 33.43 162.31 35.46 162.31C37.51 162.31 39.28 161.87 40.77 161Q41.58 160.53 42.25 159.91Q43.45 158.81 44.23 157.25C45.04 155.63 45.45 153.69 45.45 151.43C45.45 149.17 45.04 147.22 44.23 145.6C43.42 143.98 42.27 142.73 40.77 141.86ZM85.35 141.64C83.97 140.91 82.32 140.55 80.42 140.55Q77.86 140.55 76.01 141.44C74.77 142.02 73.82 142.8 73.16 143.78Q72.78 144.35 72.55 144.98Q72.2 145.93 72.2 147.01Q72.2 148.13 72.6 149.07Q72.69 149.29 72.81 149.51Q73.42 150.6 74.66 151.36C75.5 151.88 76.55 152.27 77.83 152.55L82.47 153.6C83.6 153.86 84.37 154.22 84.78 154.69Q85.13 155.08 85.29 155.53Q85.42 155.9 85.42 156.32Q85.42 156.92 85.2 157.41Q85.06 157.72 84.84 157.99Q84.3 158.66 83.21 159.01C82.5 159.25 81.66 159.36 80.68 159.36C79.57 159.36 78.56 159.2 77.64 158.88C76.74 158.56 75.96 158.12 75.27 157.54C74.59 156.94 74.02 156.27 73.58 155.52L71.21 157.89Q72.07 159.17 73.42 160.16C74.31 160.82 75.36 161.35 76.55 161.73C77.75 162.12 79.09 162.31 80.58 162.31Q83.11 162.31 84.97 161.54C86.23 161.03 87.21 160.29 87.91 159.33C88.62 158.37 88.97 157.24 88.97 155.94C88.97 154.53 88.54 153.37 87.69 152.45C86.84 151.53 85.38 150.85 83.34 150.4L79.05 149.44C77.79 149.17 76.93 148.78 76.46 148.29C76.01 147.8 75.78 147.22 75.78 146.56C75.78 145.99 75.93 145.48 76.23 145.03C76.55 144.56 77.04 144.18 77.7 143.91C78.37 143.63 79.21 143.49 80.23 143.49C81.62 143.49 82.81 143.77 83.82 144.32C84.84 144.86 85.76 145.74 86.57 146.98L88.87 144.77C87.91 143.38 86.74 142.34 85.35 141.64ZM6.56 149.83L6.56 140.87L3.13 140.87L3.13 161.99L6.56 161.99L6.56 152.77L16.99 152.77L16.99 161.99L20.44 161.99L20.44 140.87L16.99 140.87L16.99 149.83L6.56 149.83ZM67.37 153.89L67.37 140.87L63.95 140.87L63.95 153.48Q63.95 156.45 62.67 157.89Q62.56 158 62.46 158.11Q61.18 159.33 58.73 159.33C56.98 159.33 55.68 158.85 54.83 157.89Q53.55 156.45 53.55 153.48L53.55 140.87L50.12 140.87L50.12 153.89Q50.12 157.86 52.1 159.97Q52.21 160.08 52.33 160.2Q52.37 160.24 52.42 160.28Q54.65 162.31 58.73 162.31Q62.95 162.31 65.16 160.2L65.16 160.2Q65.28 160.08 65.39 159.97Q67.37 157.86 67.37 153.89ZM93.76 140.87L93.76 161.99L109.5 161.99L109.5 159.04L97.18 159.04L97.18 152.77L106.46 152.77L106.46 149.89L97.18 149.89L97.18 143.81L109.05 143.81L109.05 140.87L93.76 140.87ZM32.04 144.45C33 143.83 34.14 143.52 35.46 143.52Q37.47 143.52 38.87 144.44Q38.88 144.45 38.89 144.45Q39.13 144.61 39.36 144.79Q40.46 145.68 41.09 147.14C41.61 148.31 41.86 149.74 41.86 151.43C41.86 153.09 41.61 154.52 41.09 155.72Q40.46 157.17 39.36 158.06Q39.13 158.24 38.89 158.4C37.95 159.02 36.81 159.33 35.46 159.33C34.14 159.33 33 159.02 32.04 158.4C31.1 157.78 30.37 156.89 29.86 155.72C29.35 154.52 29.09 153.09 29.09 151.43Q29.09 148.9 29.86 147.14C30.37 145.97 31.1 145.07 32.04 144.45Z" fill="#C5C7C8" fill-opacity="1.000000" fill-rule="evenodd"/>
	<path id="Soft" d="M591.84 79.44C591.84 65.19 583.8 58.08 567.71 58.08L517.56 58.08C512.28 58.08 509.64 56.08 509.64 52.08L509.64 47.28C509.64 43.44 512.28 41.52 517.56 41.52L588.59 41.52L588.59 26.52L511.2 26.52Q498.63 26.52 493.49 32.69Q489.96 36.95 489.96 44.16L489.96 53.16Q489.96 60.36 493.49 64.62Q498.63 70.8 511.2 70.8L561.36 70.8C568.48 70.8 572.03 74.04 572.03 80.51L572.03 89.64C572.03 96.04 568.48 99.24 561.36 99.24L490.2 99.24L490.2 114.24L567.71 114.24C583.8 114.24 591.84 107.12 591.84 92.88L591.84 79.44ZM606.83 92.88C606.83 107.12 614.71 114.24 630.46 114.24L690.11 114.24C705.87 114.24 713.75 107.12 713.75 92.88L713.75 47.88C713.75 33.64 705.87 26.52 690.11 26.52L630.46 26.52C614.71 26.52 606.83 33.64 606.83 47.88L606.83 92.88ZM812.17 58.08L751.45 58.08L751.45 41.52L831.97 41.52L831.97 26.52L731.41 26.52L731.41 114.24L751.45 114.24L751.45 70.8L812.17 70.8L812.17 58.08ZM886.45 41.52L886.45 114.24L906.61 114.24L906.61 41.52L951.61 41.52L951.61 26.52L841.57 26.52L841.57 41.52L886.45 41.52ZM626.87 51.12C626.87 44.72 630.27 41.52 637.07 41.52L683.51 41.52C690.31 41.52 693.71 44.72 693.71 51.12L693.71 89.64Q693.71 94.14 691.45 96.54Q688.91 99.24 683.51 99.24L637.07 99.24C630.27 99.24 626.87 96.04 626.87 89.64L626.87 51.12Z" fill="url(#paint_linear_125_238_0)" fill-opacity="1.000000" fill-rule="evenodd"/>
</svg>
