<svg width="70" height="82" viewBox="0 0 70 82" fill="none" xmlns="http://www.w3.org/2000/svg">
<path d="M36.3175 23.2693L32.679 17.3811L22.8779 34.904L31.8736 27.5083L35.7591 31.6803L37.8922 29.4719L46.363 35.2905L38.6976 22.2514L36.5619 23.6533L36.3175 23.2693Z" fill="url(#paint0_linear_3957_10286)"/>
<path d="M30.1908 0V9.39276L9.94008 28.5055L5.27238 23.8336L30.1908 0Z" fill="url(#paint1_linear_3957_10286)"/>
<path d="M5.27238 23.8336L0 28.8792L30.1908 56.8256V47.6647L9.94008 28.5055" fill="url(#paint2_linear_3957_10286)"/>
<path d="M39.8092 0.0927642V9.48553L60.0599 28.5983L64.7276 23.9264L39.8092 0.0927642Z" fill="url(#paint3_linear_3957_10286)"/>
<path d="M64.7276 23.9264L70 28.9745L39.8092 56.9183V47.7601L60.0599 28.5983" fill="url(#paint4_linear_3957_10286)"/>
<path d="M6.61864 72.6992V64.7788H9.29097C9.91143 64.7788 10.4186 64.891 10.8125 65.1153C11.209 65.337 11.5025 65.6374 11.693 66.0164C11.8835 66.3954 11.9787 66.8182 11.9787 67.2849C11.9787 67.7516 11.8835 68.1757 11.693 68.5573C11.505 68.9388 11.2141 69.2431 10.8202 69.4699C10.4263 69.6943 9.92172 69.8064 9.30642 69.8064H7.39099V68.9556H9.27553C9.70032 68.9556 10.0414 68.8821 10.2989 68.7352C10.5563 68.5882 10.743 68.3897 10.8588 68.1396C10.9773 67.8869 11.0365 67.602 11.0365 67.2849C11.0365 66.9678 10.9773 66.6842 10.8588 66.4341C10.743 66.184 10.5551 65.988 10.295 65.8462C10.035 65.7019 9.69002 65.6297 9.26008 65.6297H7.57636V72.6992H6.61864Z" fill="white"/>
<path d="M13.8478 72.6992V64.7788H18.6209V65.6297H14.8055V68.3059H18.3737V69.1567H14.8055V71.8484H18.6827V72.6992H13.8478Z" fill="white"/>
<path d="M20.9977 72.6992H19.9936L22.8977 64.7788H23.8863L26.7903 72.6992H25.7863L23.4229 66.0319H23.3611L20.9977 72.6992ZM21.3684 69.6053H25.4155V70.4561H21.3684V69.6053Z" fill="white"/>
<path d="M28.3485 72.6992V64.7788H29.3062V68.7081H29.3989L32.9517 64.7788H34.2029L30.8818 68.3523L34.2029 72.6992H33.0443L30.2948 69.0175L29.3062 70.1313V72.6992H28.3485Z" fill="white"/>
<path d="M40.0939 66.7589C40.0475 66.367 39.8596 66.0628 39.5301 65.8462C39.2005 65.6297 38.7963 65.5214 38.3175 65.5214C37.9673 65.5214 37.661 65.5781 37.3984 65.6915C37.1384 65.805 36.935 65.961 36.7882 66.1595C36.6441 66.358 36.572 66.5836 36.572 66.8363C36.572 67.0477 36.6222 67.2295 36.7226 67.3816C36.8256 67.5311 36.9569 67.6562 37.1165 67.7567C37.2761 67.8547 37.4434 67.9359 37.6185 68.0004C37.7936 68.0622 37.9545 68.1125 38.1012 68.1512L38.9045 68.3678C39.1104 68.4219 39.3395 68.4967 39.5918 68.5921C39.8467 68.6875 40.09 68.8177 40.3217 68.9827C40.556 69.1451 40.7491 69.3539 40.901 69.6092C41.0529 69.8644 41.1288 70.1777 41.1288 70.5489C41.1288 70.9769 41.0168 71.3637 40.7929 71.7092C40.5714 72.0546 40.2471 72.3292 39.8197 72.5329C39.3949 72.7366 38.8787 72.8384 38.2711 72.8384C37.7047 72.8384 37.2143 72.7469 36.7998 72.5638C36.3879 72.3808 36.0635 72.1255 35.8266 71.7981C35.5924 71.4707 35.4598 71.0904 35.4289 70.6572H36.4175C36.4432 70.9563 36.5436 71.2038 36.7187 71.3998C36.8964 71.5931 37.1203 71.7375 37.3907 71.8329C37.6635 71.9257 37.957 71.9721 38.2711 71.9721C38.6367 71.9721 38.965 71.9128 39.2559 71.7942C39.5468 71.6731 39.7772 71.5055 39.9471 71.2915C40.117 71.0749 40.202 70.8222 40.202 70.5335C40.202 70.2705 40.1286 70.0565 39.9819 69.8915C39.8351 69.7265 39.6421 69.5924 39.4026 69.4893C39.1632 69.3862 38.9045 69.2959 38.6264 69.2186L37.6533 68.9401C37.0354 68.7622 36.5462 68.5083 36.1858 68.1783C35.8254 67.8482 35.6451 67.4164 35.6451 66.8827C35.6451 66.4392 35.7649 66.0525 36.0043 65.7225C36.2463 65.3899 36.5707 65.1321 36.9774 64.949C37.3868 64.7634 37.8438 64.6706 38.3484 64.6706C38.8581 64.6706 39.3112 64.7621 39.7077 64.9451C40.1042 65.1256 40.4183 65.3731 40.65 65.6877C40.8842 66.0022 41.0078 66.3593 41.0207 66.7589H40.0939Z" fill="white"/>
<path d="M49.7028 68.739C49.7028 69.5744 49.5522 70.2963 49.251 70.9047C48.9497 71.5132 48.5365 71.9824 48.0113 72.3125C47.4861 72.6425 46.8863 72.8075 46.2118 72.8075C45.5373 72.8075 44.9374 72.6425 44.4122 72.3125C43.887 71.9824 43.4738 71.5132 43.1726 70.9047C42.8714 70.2963 42.7208 69.5744 42.7208 68.739C42.7208 67.9037 42.8714 67.1818 43.1726 66.5733C43.4738 65.9648 43.887 65.4956 44.4122 65.1656C44.9374 64.8356 45.5373 64.6706 46.2118 64.6706C46.8863 64.6706 47.4861 64.8356 48.0113 65.1656C48.5365 65.4956 48.9497 65.9648 49.251 66.5733C49.5522 67.1818 49.7028 67.9037 49.7028 68.739ZM48.776 68.739C48.776 68.0532 48.6614 67.4744 48.4323 67.0026C48.2057 66.5308 47.8981 66.1737 47.5093 65.9313C47.1231 65.689 46.6906 65.5678 46.2118 65.5678C45.7329 65.5678 45.2991 65.689 44.9104 65.9313C44.5242 66.1737 44.2165 66.5308 43.9874 67.0026C43.7608 67.4744 43.6476 68.0532 43.6476 68.739C43.6476 69.4248 43.7608 70.0036 43.9874 70.4755C44.2165 70.9473 44.5242 71.3044 44.9104 71.5467C45.2991 71.7891 45.7329 71.9102 46.2118 71.9102C46.6906 71.9102 47.1231 71.7891 47.5093 71.5467C47.8981 71.3044 48.2057 70.9473 48.4323 70.4755C48.6614 70.0036 48.776 69.4248 48.776 68.739Z" fill="white"/>
<path d="M51.6394 72.6992V64.7788H56.3816V65.6297H52.5971V68.3059H56.0263V69.1567H52.5971V72.6992H51.6394Z" fill="white"/>
<path d="M57.9156 65.6297V64.7788H63.8472V65.6297H61.3603V72.6992H60.4026V65.6297H57.9156Z" fill="white"/>
<path d="M24.4668 81.172V76.7351H25.0033V78.7109H27.3657V76.7351H27.9022V81.172H27.3657V79.1875H25.0033V81.172H24.4668Z" fill="white"/>
<path d="M32.8972 78.9535C32.8972 79.4215 32.8129 79.8259 32.6441 80.1668C32.4754 80.5076 32.2439 80.7705 31.9497 80.9554C31.6555 81.1402 31.3195 81.2327 30.9416 81.2327C30.5637 81.2327 30.2277 81.1402 29.9335 80.9554C29.6393 80.7705 29.4078 80.5076 29.2391 80.1668C29.0703 79.8259 28.986 79.4215 28.986 78.9535C28.986 78.4856 29.0703 78.0812 29.2391 77.7403C29.4078 77.3995 29.6393 77.1366 29.9335 76.9517C30.2277 76.7669 30.5637 76.6744 30.9416 76.6744C31.3195 76.6744 31.6555 76.7669 31.9497 76.9517C32.2439 77.1366 32.4754 77.3995 32.6441 77.7403C32.8129 78.0812 32.8972 78.4856 32.8972 78.9535ZM32.378 78.9535C32.378 78.5694 32.3139 78.2451 32.1855 77.9808C32.0586 77.7165 31.8862 77.5165 31.6685 77.3807C31.4521 77.2449 31.2098 77.177 30.9416 77.177C30.6733 77.177 30.4303 77.2449 30.2126 77.3807C29.9962 77.5165 29.8239 77.7165 29.6955 77.9808C29.5686 78.2451 29.5051 78.5694 29.5051 78.9535C29.5051 79.3377 29.5686 79.662 29.6955 79.9263C29.8239 80.1906 29.9962 80.3906 30.2126 80.5264C30.4303 80.6622 30.6733 80.73 30.9416 80.73C31.2098 80.73 31.4521 80.6622 31.6685 80.5264C31.8862 80.3906 32.0586 80.1906 32.1855 79.9263C32.3139 79.662 32.378 79.3377 32.378 78.9535Z" fill="white"/>
<path d="M36.8896 76.7351H37.4261V79.6728C37.4261 79.9761 37.3547 80.2469 37.2119 80.4852C37.0706 80.7221 36.8709 80.9091 36.6127 81.0464C36.3546 81.1821 36.0517 81.25 35.7041 81.25C35.3565 81.25 35.0537 81.1821 34.7955 81.0464C34.5374 80.9091 34.3369 80.7221 34.1941 80.4852C34.0528 80.2469 33.9821 79.9761 33.9821 79.6728V76.7351H34.5186V79.6295C34.5186 79.8461 34.5662 80.0389 34.6614 80.2079C34.7566 80.3755 34.8921 80.5076 35.0681 80.6044C35.2455 80.6997 35.4575 80.7474 35.7041 80.7474C35.9507 80.7474 36.1627 80.6997 36.3401 80.6044C36.5175 80.5076 36.6531 80.3755 36.7468 80.2079C36.842 80.0389 36.8896 79.8461 36.8896 79.6295V76.7351Z" fill="white"/>
<path d="M41.1032 77.8443C41.0772 77.6248 40.9719 77.4543 40.7873 77.333C40.6027 77.2117 40.3763 77.151 40.1081 77.151C39.9119 77.151 39.7403 77.1828 39.5932 77.2464C39.4475 77.3099 39.3336 77.3973 39.2514 77.5085C39.1706 77.6197 39.1302 77.7461 39.1302 77.8876C39.1302 78.0061 39.1584 78.1079 39.2146 78.1931C39.2723 78.2769 39.3458 78.3469 39.4353 78.4033C39.5247 78.4581 39.6184 78.5036 39.7165 78.5397C39.8146 78.5744 39.9047 78.6026 39.9869 78.6242L40.4369 78.7456C40.5523 78.7759 40.6806 78.8178 40.822 78.8712C40.9647 78.9247 41.101 78.9976 41.2308 79.09C41.3621 79.181 41.4702 79.298 41.5553 79.441C41.6404 79.584 41.683 79.7595 41.683 79.9674C41.683 80.2072 41.6202 80.4239 41.4948 80.6174C41.3707 80.8109 41.189 80.9648 40.9496 81.0788C40.7116 81.1929 40.4225 81.25 40.0821 81.25C39.7648 81.25 39.4901 81.1987 39.2579 81.0962C39.0271 80.9936 38.8454 80.8506 38.7127 80.6672C38.5815 80.4838 38.5072 80.2708 38.4899 80.0281H39.0437C39.0581 80.1956 39.1144 80.3343 39.2124 80.4441C39.312 80.5524 39.4374 80.6333 39.5889 80.6867C39.7417 80.7387 39.9061 80.7647 40.0821 80.7647C40.2869 80.7647 40.4708 80.7315 40.6338 80.6651C40.7967 80.5972 40.9258 80.5033 41.021 80.3834C41.1162 80.2621 41.1638 80.1205 41.1638 79.9588C41.1638 79.8115 41.1227 79.6916 41.0405 79.5992C40.9582 79.5067 40.8501 79.4316 40.716 79.3738C40.5818 79.3161 40.4369 79.2655 40.2811 79.2222L39.736 79.0662C39.3898 78.9665 39.1158 78.8243 38.9139 78.6394C38.712 78.4545 38.611 78.2126 38.611 77.9136C38.611 77.6652 38.6781 77.4486 38.8122 77.2637C38.9478 77.0774 39.1295 76.933 39.3574 76.8304C39.5867 76.7264 39.8427 76.6744 40.1254 76.6744C40.4109 76.6744 40.6648 76.7257 40.8869 76.8282C41.109 76.9293 41.2849 77.068 41.4147 77.2442C41.546 77.4204 41.6152 77.6204 41.6224 77.8443H41.1032Z" fill="white"/>
<path d="M42.7478 81.172V76.7351H45.4217V77.2117H43.2843V78.7109H45.2832V79.1875H43.2843V80.6954H45.4563V81.172H42.7478Z" fill="white"/>
<defs>
<linearGradient id="paint0_linear_3957_10286" x1="2.98346" y1="61.2941" x2="73.3171" y2="47.8722" gradientUnits="userSpaceOnUse">
<stop offset="0.36" stop-color="#08B6E5"/>
<stop offset="0.67" stop-color="#0C81C3"/>
</linearGradient>
<linearGradient id="paint1_linear_3957_10286" x1="0" y1="40.625" x2="70" y2="40.625" gradientUnits="userSpaceOnUse">
<stop stop-color="#077CC1"/>
<stop offset="1" stop-color="#34BBED"/>
</linearGradient>
<linearGradient id="paint2_linear_3957_10286" x1="12.3319" y1="40.6218" x2="82.3379" y2="40.6218" gradientUnits="userSpaceOnUse">
<stop stop-color="#0FBBEE"/>
<stop offset="0.44" stop-color="#119ED9"/>
<stop offset="1" stop-color="#1373BA"/>
</linearGradient>
<linearGradient id="paint3_linear_3957_10286" x1="69.9928" y1="40.625" x2="-0.00722647" y2="40.625" gradientUnits="userSpaceOnUse">
<stop stop-color="#077CC1"/>
<stop offset="1" stop-color="#34BBED"/>
</linearGradient>
<linearGradient id="paint4_linear_3957_10286" x1="57.6622" y1="40.6218" x2="-12.3378" y2="40.6218" gradientUnits="userSpaceOnUse">
<stop stop-color="#0FBBEE"/>
<stop offset="0.44" stop-color="#119ED9"/>
<stop offset="1" stop-color="#1373BA"/>
</linearGradient>
</defs>
</svg>
